# Blender v2.79 (sub 0) OBJ File: ''
# www.blender.org
mtllib DoorSpike.mtl
o Cube_Cube.001
v 0.000000 -1.000000 0.955903
v -0.955903 -1.000000 0.000000
v 0.955903 -1.000000 0.000000
v 0.000000 -1.000000 -0.955903
v 0.000000 2.118476 0.000000
v 2.676528 -1.000000 0.955903
v 1.720625 -1.000000 0.000000
v 3.632431 -1.000000 0.000000
v 2.676528 -1.000000 -0.955903
v 2.676528 2.118476 0.000000
v 5.353056 -1.000000 0.955903
v 4.397153 -1.000000 0.000000
v 6.308959 -1.000000 0.000000
v 5.353056 -1.000000 -0.955903
v 5.353056 2.118476 0.000000
v 8.029585 -1.000000 0.955903
v 7.073682 -1.000000 0.000000
v 8.985488 -1.000000 0.000000
v 8.029585 -1.000000 -0.955903
v 8.029585 2.118476 0.000000
vn -0.6911 0.2118 0.6911
vn -0.6911 0.2118 -0.6911
vn 0.6911 0.2118 -0.6911
vn 0.6911 0.2118 0.6911
vn 0.0000 -1.0000 0.0000
usemtl None
s off
f 1//1 5//1 2//1
f 2//2 5//2 4//2
f 4//3 5//3 3//3
f 3//4 5//4 1//4
f 2//5 4//5 3//5 1//5
f 6//1 10//1 7//1
f 7//2 10//2 9//2
f 9//3 10//3 8//3
f 8//4 10//4 6//4
f 7//5 9//5 8//5 6//5
f 11//1 15//1 12//1
f 12//2 15//2 14//2
f 14//3 15//3 13//3
f 13//4 15//4 11//4
f 12//5 14//5 13//5 11//5
f 16//1 20//1 17//1
f 17//2 20//2 19//2
f 19//3 20//3 18//3
f 18//4 20//4 16//4
f 17//5 19//5 18//5 16//5
