# Blender v2.79 (sub 0) OBJ File: 'runeStone.blend'
# www.blender.org
mtllib runeStone.mtl
o Cylinder
v -0.357601 -0.424255 -0.863326
v -0.357601 0.424255 -0.863326
v 0.357601 -0.424255 -0.863326
v 0.357601 0.424255 -0.863326
v 0.863326 -0.424255 -0.357601
v 0.863326 0.424255 -0.357601
v 0.863326 -0.424255 0.357601
v 0.863326 0.424255 0.357601
v 0.357601 -0.424255 0.863326
v 0.357601 0.424255 0.863326
v -0.357602 -0.424255 0.863326
v -0.357602 0.424255 0.863326
v -0.863326 -0.424255 0.357601
v -0.863326 0.424255 0.357601
v -0.863326 -0.424255 -0.357601
v -0.863326 0.424255 -0.357601
v -0.526846 0.171312 -1.271919
v -0.526846 -0.171312 -1.271919
v 0.526846 -0.171312 -1.271919
v 0.526846 0.171312 -1.271919
v 1.271919 -0.171312 -0.526846
v 1.271919 0.171312 -0.526846
v 1.271919 -0.171312 0.526846
v 1.271919 0.171312 0.526846
v 0.526846 -0.171312 1.271919
v 0.526846 0.171312 1.271919
v -0.526846 -0.171312 1.271919
v -0.526846 0.171312 1.271919
v -1.271919 -0.171312 0.526846
v -1.271919 0.171312 0.526846
v -1.271919 -0.171312 -0.526846
v -1.271919 0.171312 -0.526846
vn -0.3722 -0.8503 -0.3722
vn 0.5264 -0.8503 -0.0000
vn 0.3722 -0.8503 0.3722
vn -0.0000 -0.8503 0.5264
vn -0.3722 -0.8503 0.3722
vn -0.5264 -0.8503 0.0000
vn 0.0000 1.0000 0.0000
vn 0.0000 -0.8503 -0.5264
vn 0.0000 -1.0000 -0.0000
vn 0.3722 -0.8503 -0.3722
vn -0.5264 0.8503 0.0000
vn -0.3722 0.8503 0.3722
vn -0.0000 0.8503 0.5264
vn 0.3722 0.8503 0.3722
vn 0.5264 0.8503 -0.0000
vn 0.3722 0.8503 -0.3722
vn 0.0000 0.8503 -0.5264
vn -0.7071 -0.0000 -0.7071
vn -1.0000 0.0000 0.0000
vn -0.7071 0.0000 0.7071
vn 0.0000 0.0000 1.0000
vn 0.7071 0.0000 0.7071
vn 1.0000 0.0000 -0.0000
vn 0.7071 -0.0000 -0.7071
vn 0.0000 -0.0000 -1.0000
vn -0.3722 0.8503 -0.3722
usemtl None
s off
f 15//1 31//1 18//1 1//1
f 5//2 21//2 23//2 7//2
f 7//3 23//3 25//3 9//3
f 9//4 25//4 27//4 11//4
f 11//5 27//5 29//5 13//5
f 13//6 29//6 31//6 15//6
f 4//7 2//7 16//7 14//7 12//7 10//7 8//7 6//7
f 1//8 18//8 19//8 3//8
f 1//9 3//9 5//9 7//9 9//9 11//9 13//9 15//9
f 3//10 19//10 21//10 5//10
f 30//11 14//11 16//11 32//11
f 28//12 12//12 14//12 30//12
f 26//13 10//13 12//13 28//13
f 24//14 8//14 10//14 26//14
f 22//15 6//15 8//15 24//15
f 20//16 4//16 6//16 22//16
f 17//17 2//17 4//17 20//17
f 32//18 17//18 18//18 31//18
f 30//19 32//19 31//19 29//19
f 28//20 30//20 29//20 27//20
f 26//21 28//21 27//21 25//21
f 24//22 26//22 25//22 23//22
f 22//23 24//23 23//23 21//23
f 20//24 22//24 21//24 19//24
f 17//25 20//25 19//25 18//25
f 32//26 16//26 2//26 17//26
