# MagicaVoxel @ Ephtracy

# group
g switchrune

# material
mtllib switchrune.mtl
usemtl palette

# normals
vn -1 0 0
vn 1 0 0
vn 0 0 1
vn 0 0 -1
vn 0 -1 0
vn 0 1 0

# texcoords
vt 0.845703 0.5
vt 0.970703 0.5

# verts
v -7 4 0.5
v -7 4 -0.5
v -7 7 0.5
v -7 7 -0.5
v -5 7 0.5
v -5 7 -0.5
v -5 10 0.5
v -5 10 -0.5
v -4 10 0.5
v -4 10 -0.5
v -4 11 0.5
v -4 11 -0.5
v 4 10 0.5
v 4 10 -0.5
v 4 11 0.5
v 4 11 -0.5
v 5 7 0.5
v 5 7 -0.5
v 5 10 0.5
v 5 10 -0.5
v 7 4 0.5
v 7 4 -0.5
v 7 7 0.5
v 7 7 -0.5
v -7 4 0.5
v -7 7 0.5
v -5 7 0.5
v -5 10 0.5
v -4 10 0.5
v -4 11 0.5
v 4 10 0.5
v 4 11 0.5
v 5 7 0.5
v 5 10 0.5
v 7 4 0.5
v 7 7 0.5
v -7 4 -0.5
v -7 7 -0.5
v -5 7 -0.5
v -5 10 -0.5
v -4 10 -0.5
v -4 11 -0.5
v 4 10 -0.5
v 4 11 -0.5
v 5 7 -0.5
v 5 10 -0.5
v 7 4 -0.5
v 7 7 -0.5
v -7 4 0.5
v 7 4 0.5
v -7 4 -0.5
v 7 4 -0.5
v -7 7 0.5
v -5 7 0.5
v 5 7 0.5
v 7 7 0.5
v -7 7 -0.5
v -5 7 -0.5
v 5 7 -0.5
v 7 7 -0.5
v -5 10 0.5
v -4 10 0.5
v 4 10 0.5
v 5 10 0.5
v -5 10 -0.5
v -4 10 -0.5
v 4 10 -0.5
v 5 10 -0.5
v -4 11 0.5
v 4 11 0.5
v -4 11 -0.5
v 4 11 -0.5

# faces
f 3/2/1 2/2/1 1/2/1
f 4/2/1 2/2/1 3/2/1
f 7/1/1 6/1/1 5/1/1
f 8/1/1 6/1/1 7/1/1
f 11/1/1 10/1/1 9/1/1
f 12/1/1 10/1/1 11/1/1
f 13/1/2 14/1/2 15/1/2
f 15/1/2 14/1/2 16/1/2
f 17/1/2 18/1/2 19/1/2
f 19/1/2 18/1/2 20/1/2
f 21/2/2 22/2/2 23/2/2
f 23/2/2 22/2/2 24/2/2
f 27/2/3 26/2/3 25/2/3
f 29/1/3 28/1/3 27/1/3
f 31/1/3 29/1/3 27/1/3
f 31/1/3 30/1/3 29/1/3
f 32/1/3 30/1/3 31/1/3
f 33/2/3 27/2/3 25/2/3
f 33/1/3 31/1/3 27/1/3
f 34/1/3 31/1/3 33/1/3
f 35/2/3 33/2/3 25/2/3
f 36/2/3 33/2/3 35/2/3
f 37/2/4 38/2/4 39/2/4
f 39/1/4 40/1/4 41/1/4
f 39/1/4 41/1/4 43/1/4
f 41/1/4 42/1/4 43/1/4
f 43/1/4 42/1/4 44/1/4
f 37/2/4 39/2/4 45/2/4
f 39/1/4 43/1/4 45/1/4
f 45/1/4 43/1/4 46/1/4
f 37/2/4 45/2/4 47/2/4
f 47/2/4 45/2/4 48/2/4
f 51/2/5 50/2/5 49/2/5
f 52/2/5 50/2/5 51/2/5
f 53/2/6 54/2/6 57/2/6
f 57/2/6 54/2/6 58/2/6
f 55/2/6 56/2/6 59/2/6
f 59/2/6 56/2/6 60/2/6
f 61/1/6 62/1/6 65/1/6
f 65/1/6 62/1/6 66/1/6
f 63/1/6 64/1/6 67/1/6
f 67/1/6 64/1/6 68/1/6
f 69/1/6 70/1/6 71/1/6
f 71/1/6 70/1/6 72/1/6
