# Blender v2.79 (sub 0) OBJ File: 'key.blend'
# www.blender.org
mtllib key.mtl
o Cylinder
v -0.093038 -1.000000 -0.224612
v -0.093038 1.000000 -0.224612
v 0.093037 -1.000000 -0.224612
v 0.093037 1.000000 -0.224612
v 0.224612 -1.000000 -0.093038
v 0.224612 1.000000 -0.093038
v 0.224612 -1.000000 0.093038
v 0.224612 1.000000 0.093038
v 0.093037 -1.000000 0.224612
v 0.093037 1.000000 0.224612
v -0.093038 -1.000000 0.224612
v -0.093038 1.000000 0.224612
v -0.224613 -1.000000 0.093038
v -0.224613 1.000000 0.093038
v -0.224613 -1.000000 -0.093038
v -0.224613 1.000000 -0.093038
v 0.169305 2.196075 -0.151430
v 0.169305 2.196075 0.151430
v 0.441689 2.067278 -0.151430
v 0.441689 2.067278 0.151430
v 0.567078 1.889410 -0.151430
v 0.567078 1.889410 0.151430
v 0.567078 1.718505 -0.151430
v 0.567078 1.718505 0.151430
v 0.441689 1.540636 -0.151430
v 0.441689 1.540636 0.151430
v 0.169304 1.411839 -0.151430
v 0.169304 1.411839 0.151430
v -0.169304 1.411839 -0.151430
v -0.169304 1.411839 0.151430
v -0.441689 1.540636 -0.151430
v -0.441689 1.540636 0.151430
v -0.567078 1.718505 -0.151430
v -0.567078 1.718505 0.151430
v -0.567078 1.889409 -0.151430
v -0.567078 1.889409 0.151430
v -0.441690 2.067278 -0.151430
v -0.441690 2.067278 0.151430
v -0.169305 2.196074 -0.151430
v -0.169305 2.196074 0.151430
v 0.259002 2.595607 -0.151430
v 0.707607 2.383485 -0.151430
v 0.707607 2.383485 0.151430
v 0.259002 2.595607 0.151430
v 0.966610 2.016079 -0.151430
v 0.966610 2.016079 0.151430
v 0.966610 1.591835 -0.151430
v 0.966610 1.591835 0.151430
v 0.707607 1.224429 -0.151430
v 0.707607 1.224429 0.151430
v 0.259002 1.012307 -0.151430
v 0.259002 1.012307 0.151430
v -0.259002 1.012307 -0.151430
v -0.259002 1.012307 0.151430
v -0.707607 1.224429 -0.151430
v -0.707607 1.224429 0.151430
v -0.966610 1.591835 -0.151430
v -0.966610 1.591835 0.151430
v -0.966610 2.016078 -0.151430
v -0.966610 2.016078 0.151430
v -0.707608 2.383484 -0.151430
v -0.707608 2.383484 0.151430
v -0.259003 2.595606 -0.151430
v -0.259003 2.595606 0.151430
v 0.106591 -0.380918 0.156602
v 0.106591 -0.103269 0.156602
v 0.106591 -0.380918 -0.156602
v 0.106591 -0.103269 -0.156602
v 0.654997 -0.380918 0.156602
v 0.654997 -0.103269 0.156602
v 0.654997 -0.380918 -0.156602
v 0.654997 -0.103269 -0.156602
v 0.106591 -0.879739 0.156602
v 0.106591 -0.602090 0.156602
v 0.106591 -0.879739 -0.156602
v 0.106591 -0.602090 -0.156602
v 0.654997 -0.879739 0.156602
v 0.654997 -0.602090 0.156602
v 0.654997 -0.879739 -0.156602
v 0.654997 -0.602090 -0.156602
vn 0.0000 0.0000 -1.0000
vn 0.7071 0.0000 -0.7071
vn 1.0000 0.0000 0.0000
vn 0.7071 0.0000 0.7071
vn -0.0000 0.0000 1.0000
vn -0.7071 0.0000 0.7071
vn 0.0000 1.0000 0.0000
vn -1.0000 0.0000 0.0000
vn -0.7071 0.0000 -0.7071
vn 0.0000 -1.0000 0.0000
vn 0.4275 0.9040 0.0000
vn 0.8173 0.5762 0.0000
vn 0.8173 -0.5762 0.0000
vn 0.4275 -0.9040 0.0000
vn -0.4275 -0.9040 0.0000
vn -0.8173 -0.5762 0.0000
vn -0.8173 0.5762 0.0000
vn -0.4275 0.9040 0.0000
usemtl None
s off
f 1//1 2//1 4//1 3//1
f 3//2 4//2 6//2 5//2
f 5//3 6//3 8//3 7//3
f 7//4 8//4 10//4 9//4
f 9//5 10//5 12//5 11//5
f 11//6 12//6 14//6 13//6
f 4//7 2//7 16//7 14//7 12//7 10//7 8//7 6//7
f 13//8 14//8 16//8 15//8
f 15//9 16//9 2//9 1//9
f 1//10 3//10 5//10 7//10 9//10 11//10 13//10 15//10
f 41//11 44//11 43//11 42//11
f 42//12 43//12 46//12 45//12
f 45//3 46//3 48//3 47//3
f 47//13 48//13 50//13 49//13
f 49//14 50//14 52//14 51//14
f 51//10 52//10 54//10 53//10
f 53//15 54//15 56//15 55//15
f 55//16 56//16 58//16 57//16
f 57//8 58//8 60//8 59//8
f 59//17 60//17 62//17 61//17
f 39//14 40//14 38//14 37//14
f 61//18 62//18 64//18 63//18
f 63//7 64//7 44//7 41//7
f 17//10 18//10 40//10 39//10
f 19//1 17//1 41//1 42//1
f 18//5 20//5 43//5 44//5
f 21//1 19//1 42//1 45//1
f 20//5 22//5 46//5 43//5
f 23//1 21//1 45//1 47//1
f 22//5 24//5 48//5 46//5
f 25//1 23//1 47//1 49//1
f 24//5 26//5 50//5 48//5
f 27//1 25//1 49//1 51//1
f 26//5 28//5 52//5 50//5
f 29//1 27//1 51//1 53//1
f 28//5 30//5 54//5 52//5
f 31//1 29//1 53//1 55//1
f 30//5 32//5 56//5 54//5
f 33//1 31//1 55//1 57//1
f 32//5 34//5 58//5 56//5
f 35//1 33//1 57//1 59//1
f 34//5 36//5 60//5 58//5
f 37//1 35//1 59//1 61//1
f 36//5 38//5 62//5 60//5
f 39//1 37//1 61//1 63//1
f 38//5 40//5 64//5 62//5
f 17//1 39//1 63//1 41//1
f 40//5 18//5 44//5 64//5
f 37//13 38//13 36//13 35//13
f 35//3 36//3 34//3 33//3
f 33//12 34//12 32//12 31//12
f 31//11 32//11 30//11 29//11
f 29//7 30//7 28//7 27//7
f 27//18 28//18 26//18 25//18
f 25//17 26//17 24//17 23//17
f 23//8 24//8 22//8 21//8
f 21//16 22//16 20//16 19//16
f 19//15 20//15 18//15 17//15
f 65//8 66//8 68//8 67//8
f 67//1 68//1 72//1 71//1
f 71//3 72//3 70//3 69//3
f 69//5 70//5 66//5 65//5
f 67//10 71//10 69//10 65//10
f 72//7 68//7 66//7 70//7
f 73//8 74//8 76//8 75//8
f 75//1 76//1 80//1 79//1
f 79//3 80//3 78//3 77//3
f 77//5 78//5 74//5 73//5
f 75//10 79//10 77//10 73//10
f 80//7 76//7 74//7 78//7
