# Blender v2.79 (sub 0) OBJ File: 'spikes.blend'
# www.blender.org
mtllib spike_stone.mtl
o Cone
v -0.018838 1.640613 -0.036283
v -0.018838 -0.216491 0.312216
v -0.367336 -0.216491 -0.036283
v -0.018838 -0.216491 -0.384781
v 0.329661 -0.216491 -0.036283
v -0.651501 -0.216491 -6.000000
v -1.000000 -0.216491 -6.348498
v -1.348498 -0.216491 -6.000000
v -1.000000 -0.216491 -5.651502
v -1.000000 1.640613 -6.000000
v 1.348498 -0.216491 -6.000000
v 1.000000 -0.216491 -6.348498
v 0.651501 -0.216491 -6.000000
v 1.000000 -0.216491 -5.651502
v 1.000000 1.640613 -6.000000
v -0.651501 -0.216491 6.000000
v -1.000000 -0.216491 5.651502
v -1.348498 -0.216491 6.000000
v -1.000000 -0.216491 6.348498
v -1.000000 1.640613 6.000000
v 1.348498 -0.216491 6.000000
v 1.000000 -0.216491 5.651501
v 0.651501 -0.216491 6.000000
v 1.000000 -0.216491 6.348498
v 1.000000 1.640613 6.000000
vn 0.0000 1.0000 0.0000
vn -0.7010 -0.1315 -0.7010
vn 0.7010 -0.1315 -0.7010
vn 0.7010 -0.1315 0.7010
vn -0.7010 -0.1315 0.7010
usemtl None
s off
f 5//1 4//1 3//1 2//1
f 2//2 1//2 5//2
f 3//3 1//3 2//3
f 4//4 1//4 3//4
f 5//5 1//5 4//5
f 6//5 10//5 7//5
f 7//4 10//4 8//4
f 8//3 10//3 9//3
f 9//2 10//2 6//2
f 6//1 7//1 8//1 9//1
f 11//5 15//5 12//5
f 12//4 15//4 13//4
f 13//3 15//3 14//3
f 14//2 15//2 11//2
f 11//1 12//1 13//1 14//1
f 16//5 20//5 17//5
f 17//4 20//4 18//4
f 18//3 20//3 19//3
f 19//2 20//2 16//2
f 16//1 17//1 18//1 19//1
f 21//5 25//5 22//5
f 22//4 25//4 23//4
f 23//3 25//3 24//3
f 24//2 25//2 21//2
f 21//1 22//1 23//1 24//1
